<svg width="30" height="30" viewBox="0 0 30 30" fill="none" xmlns="http://www.w3.org/2000/svg">
<g clip-path="url(#clip0_6_269)">
<path d="M15 23.75C15.3062 23.75 15.6017 23.8624 15.8305 24.0659C16.0593 24.2693 16.2054 24.5497 16.2413 24.8537L16.25 25V26.25C16.2496 26.5686 16.1277 26.875 15.9089 27.1067C15.6902 27.3384 15.3913 27.4778 15.0733 27.4965C14.7552 27.5151 14.442 27.4117 14.1977 27.2072C13.9534 27.0027 13.7964 26.7126 13.7587 26.3963L13.75 26.25V25C13.75 24.6685 13.8817 24.3505 14.1161 24.1161C14.3505 23.8817 14.6685 23.75 15 23.75Z" fill="black"/>
<path d="M22.8912 21.1375L23.0087 21.2412L23.8837 22.1162C24.1078 22.3412 24.238 22.643 24.2477 22.9605C24.2574 23.2779 24.1459 23.5871 23.9358 23.8253C23.7258 24.0635 23.433 24.2129 23.1168 24.243C22.8007 24.2731 22.4849 24.1818 22.2337 23.9875L22.1162 23.8837L21.2412 23.0087C21.0254 22.7934 20.8958 22.5067 20.8767 22.2025C20.8576 21.8983 20.9503 21.5976 21.1373 21.357C21.3244 21.1163 21.5929 20.9523 21.8924 20.8958C22.1919 20.8392 22.5018 20.8941 22.7637 21.05L22.8912 21.1375Z" fill="black"/>
<path d="M8.75885 21.2412C8.97407 21.4565 9.10336 21.7428 9.12246 22.0466C9.14156 22.3504 9.04916 22.6507 8.8626 22.8912L8.75885 23.0087L7.88385 23.8837C7.6589 24.1079 7.35706 24.2381 7.03962 24.2478C6.72218 24.2575 6.41296 24.146 6.17475 23.9359C5.93654 23.7259 5.78722 23.433 5.7571 23.1169C5.72698 22.8007 5.81833 22.485 6.0126 22.2337L6.11635 22.1162L6.99135 21.2412C7.22576 21.0069 7.54364 20.8752 7.8751 20.8752C8.20656 20.8752 8.52444 21.0069 8.75885 21.2412Z" fill="black"/>
<path d="M5.00008 13.75C5.31868 13.7504 5.62512 13.8723 5.85679 14.0911C6.08846 14.3098 6.22787 14.6087 6.24654 14.9267C6.26522 15.2448 6.16174 15.558 5.95725 15.8023C5.75276 16.0466 5.4627 16.2036 5.14633 16.2413L5.00008 16.25H3.75008C3.43148 16.2496 3.12504 16.1277 2.89337 15.9089C2.6617 15.6902 2.52229 15.3913 2.50361 15.0733C2.48494 14.7552 2.58842 14.442 2.79291 14.1977C2.9974 13.9534 3.28746 13.7964 3.60383 13.7587L3.75008 13.75H5.00008Z" fill="black"/>
<path d="M26.2501 13.75C26.5687 13.7504 26.8751 13.8723 27.1068 14.0911C27.3385 14.3098 27.4779 14.6087 27.4965 14.9267C27.5152 15.2448 27.4117 15.558 27.2072 15.8023C27.0028 16.0466 26.7127 16.2036 26.3963 16.2413L26.2501 16.25H25.0001C24.6815 16.2496 24.375 16.1277 24.1434 15.9089C23.9117 15.6902 23.7723 15.3913 23.7536 15.0733C23.7349 14.7552 23.8384 14.442 24.0429 14.1977C24.2474 13.9534 24.5375 13.7964 24.8538 13.7587L25.0001 13.75H26.2501Z" fill="black"/>
<path d="M7.76629 6.0125L7.88379 6.11625L8.75879 6.99125C8.98297 7.2162 9.11313 7.51804 9.12282 7.83548C9.13251 8.15292 9.02102 8.46214 8.81098 8.70035C8.60093 8.93855 8.3081 9.08788 7.99194 9.118C7.67579 9.14811 7.36003 9.05676 7.10879 8.8625L6.99129 8.75875L6.11629 7.88375C5.9014 7.66835 5.77245 7.38197 5.75362 7.07829C5.73479 6.77461 5.82736 6.47449 6.01399 6.23419C6.20062 5.99389 6.46848 5.82991 6.76737 5.77299C7.06626 5.71607 7.37565 5.77011 7.63754 5.925L7.76629 6.0125Z" fill="black"/>
<path d="M23.8839 6.11623C24.0991 6.33147 24.2284 6.61784 24.2475 6.92163C24.2666 7.22541 24.1742 7.52572 23.9876 7.76623L23.8839 7.88373L23.0088 8.75873C22.7839 8.98291 22.4821 9.11307 22.1646 9.12276C21.8472 9.13246 21.538 9.02096 21.2998 8.81092C21.0615 8.60087 20.9122 8.30804 20.8821 7.99188C20.852 7.67573 20.9433 7.35997 21.1376 7.10873L21.2414 6.99123L22.1164 6.11623C22.3508 5.88189 22.6686 5.75024 23.0001 5.75024C23.3316 5.75024 23.6494 5.88189 23.8839 6.11623Z" fill="black"/>
<path d="M15 2.5C15.3062 2.50004 15.6017 2.61245 15.8305 2.81589C16.0593 3.01934 16.2054 3.29969 16.2413 3.60375L16.25 3.75V5C16.2496 5.3186 16.1277 5.62504 15.9089 5.85671C15.6902 6.08838 15.3913 6.22779 15.0733 6.24646C14.7552 6.26514 14.442 6.16166 14.1977 5.95717C13.9534 5.75268 13.7964 5.46262 13.7587 5.14625L13.75 5V3.75C13.75 3.41848 13.8817 3.10054 14.1161 2.86612C14.3505 2.6317 14.6685 2.5 15 2.5Z" fill="black"/>
<path d="M15 8.75C16.2246 8.74993 17.4222 9.10961 18.4442 9.78437C19.4661 10.4591 20.2673 11.4192 20.7482 12.5455C21.2291 13.6717 21.3686 14.9143 21.1493 16.1191C20.9301 17.3239 20.3617 18.4378 19.5148 19.3223C18.6679 20.2069 17.5798 20.8231 16.3857 21.0945C15.1915 21.366 13.944 21.2806 12.7979 20.8491C11.6519 20.4175 10.6579 19.6588 9.93932 18.6672C9.22079 17.6756 8.8094 16.4947 8.75625 15.2712L8.75 15L8.75625 14.7287C8.82615 13.1197 9.51451 11.5997 10.6778 10.4858C11.841 9.37193 13.3894 8.75009 15 8.75Z" fill="black"/>
</g>
<defs>
<clipPath id="clip0_6_269">
<rect width="30" height="30" fill="white"/>
</clipPath>
</defs>
</svg>
